# xmcd CD database file
#
# Track frame offsets:
#	187
#	19767
#	37907
#
# Disc length: 762 seconds
#
# Revision: 1
# Processed by: cddbd v1.5.1PL0 Copyright (c) Steve Scherf et al.
# Submitted via: CDex 1.51
#
DISCID=1702f803
DTITLE=Rick Astley - The Ones You Love
DYEAR=1993
DGENRE=Pop
TTITLE0=The Ones You Love (edit)
TTITLE1=Remember the Days
TTITLE2=Cry for Help (live)
EXTD=YEAR: 1993
EXTT0=
EXTT1=
EXTT2=
PLAYORDER=
